<?xml version="1.0" standalone="no"?> <!DOCTYPE svg PUBLIC "-//W3C//DTD SVG 1.0//EN" "http://www.w3.org/TR/2001/REC-SVG-20010904/DTD/svg10.dtd" > <svg xmlns="http://www.w3.org/2000/svg" width="100%" height="100%">
<defs >
<font id="Hind-Bold" horiz-adv-x="564" ><font-face
    font-family="Hind Bold"
    units-per-em="1000"
    panose-1="2 0 0 0 0 0 0 0 0 0"
    ascent="1055"
    descent="-546"
    alphabetic="0" />
<missing-glyph horiz-adv-x="518" d="M259 302H255L155 93H95L229 353L95 608H155L260 402H264L364 608H424L289 347L424 93H364L259 302ZM59 649V52H459V649H59ZM4 0V701H514V0H4Z" />
<glyph unicode=" " glyph-name="space" horiz-adv-x="250" />
<glyph unicode="!" glyph-name="exclam" horiz-adv-x="289" d="M52 45T52 83T78 147T143 174T207 148T234 83T208 19T143 -8T79 18ZM75 236V674H214V236H75Z" />
<glyph unicode="&quot;" glyph-name="quotedbl" horiz-adv-x="387" d="M225 420V681H347V420H225ZM40 420V681H162V420H40Z" />
<glyph unicode="#" glyph-name="numbersign" horiz-adv-x="757" d="M712 400H581L552 265H678V154H529L496 0H373L405 154H269L236 0H113L145 154H45V265H169L197 400H79V516H222L255 673H379L346 516H482L515 673H639L606 516H712V400ZM429 265L457 400H321L292
265H429Z" />
<glyph unicode="$" glyph-name="dollar" horiz-adv-x="514" d="M281 547Q242 547 222 531T201 490T226 446T291 408T352 380T399 351T442 312Q479 262 479 191T431 67T299 -2V-118H178V-5Q95 3 40 34V189Q131 123 234 123Q269 123 292 141T315 190Q315 212 304
223T286 239T264 252T239 265Q208 281 178 293Q113 323 74 367T34 486T85 612T227 675V790H349V673Q402 665 449 644V500Q368 547 281 547Z" />
<glyph unicode="%" glyph-name="percent" horiz-adv-x="973" d="M665 212T665 182T686 131T738 109T789 130T811 182T790 233T738 255T687 234ZM162 562T162 532T183 481T235 459T286 480T308 532T287 583T235 605T184 584ZM45 453T45 532T100 666T235 722T369
667T425 532T370 398T235 342T101 397ZM548 103T548 182T603 316T738 372T872 317T928 182T873 48T738 -8T604 47ZM227 -1L606 707H738L358 -1H227Z" />
<glyph unicode="&amp;" glyph-name="ampersand" horiz-adv-x="742" d="M335 -8Q203 -8 127 48T50 184Q50 308 192 354Q124 429 124 502Q124 591 185 639T345 688T503 639T563 500Q563 441 530 396T421 312L519 216Q537 255 537 301H668Q668 201 612 123L737 0H558L519
39Q438 -8 335 -8ZM416 529T396 549T343 569T291 552T272 504Q272 460 341 391Q416 432 416 492Q416 529 396 549ZM232 257T216 237T199 186T238 134T330 112T425 130Q294 258 288 263T278 273Q232 257 216 237Z" />
<glyph unicode="&apos;" glyph-name="quotesingle" horiz-adv-x="202" d="M40 420V681H162V420H40Z" />
<glyph unicode="(" glyph-name="parenleft" horiz-adv-x="338" d="M203 -196Q40 7 40 263T197 707H348Q275 618 235 491T194 257T236 26T358 -196H203Z" />
<glyph unicode=")" glyph-name="parenright" horiz-adv-x="338" d="M141 707Q298 519 298 263T135 -196H-20Q60 -98 102 25T144 256T104 491T-10 707H141Z" />
<glyph unicode="*" glyph-name="asterisk" horiz-adv-x="508" d="M339 428H337Q358 412 373 392L431 312L335 243L278 322Q262 344 256 365Q248 346 232 323L173 243L78 313L136 392Q151 412 171 427Q148 427 122 436L28 467L65 579L158 549Q184 540 203 526Q196
550 196 576V674H314V576Q314 550 307 526Q325 539 351 548L445 578L481 466L389 436Q364 428 339 428Z" />
<glyph unicode="+" glyph-name="plus" horiz-adv-x="589" d="M544 404V274H361V94H227V274H45V404H227V585H361V404H544Z" />
<glyph unicode="," glyph-name="comma" horiz-adv-x="294" d="M-7 -127L94 134H255L119 -127H-7Z" />
<glyph unicode="-" glyph-name="hyphen" horiz-adv-x="357" d="M45 202V322H312V202H45Z" />
<glyph unicode="." glyph-name="period" horiz-adv-x="258" d="M40 44T40 81T66 144T129 170T192 144T218 81T192 18T129 -8T66 18Z" />
<glyph unicode="/" glyph-name="slash" horiz-adv-x="464" d="M-2 -103L357 707H509L149 -103H-2Z" />
<glyph unicode="0" glyph-name="zero" horiz-adv-x="547" d="M184 538T184 330T273 122T363 330T274 538ZM155 -8T95 83T35 330T95 577T273 668T451 577T512 331T452 84T273 -8Z" />
<glyph unicode="1" glyph-name="one" horiz-adv-x="380" d="M320 654V0H175V497L10 398V547L194 654H320Z" />
<glyph unicode="2" glyph-name="two" horiz-adv-x="501" d="M466 124V0H30V113Q138 187 220 277T303 436Q303 478 278 502T202 527Q117 527 41 464V605Q74 629 127 646T231 663Q333 663 393 610T454 460Q454 287 234 124H466Z" />
<glyph unicode="3" glyph-name="three" horiz-adv-x="483" d="M205 663Q311 663 373 613T435 481Q435 370 334 328Q448 301 448 180Q448 96 385 46T211 -5T30 29V169Q110 125 195 125Q244 125 271 146T299 199Q299 272 164 272H129V392H164Q217 392 251 410T285
464Q285 533 195 533Q126 533 56 490V626Q130 663 205 663Z" />
<glyph unicode="4" glyph-name="four" horiz-adv-x="562" d="M542 263V139H462V0H317V139H30V263L230 656H462V263H542ZM317 263V559L173 263H317Z" />
<glyph unicode="5" glyph-name="five" horiz-adv-x="500" d="M205 532V421Q227 424 249 424Q356 424 413 369T470 216T403 56T219 -6T35 29V167Q103 125 187 125Q321 125 321 221Q321 257 294 278T200 299T63 266V656H430V532H205Z" />
<glyph unicode="6" glyph-name="six" horiz-adv-x="537" d="M370 536Q299 536 254 493T192 376Q246 422 326 422T459 365T512 211T450 47T273 -20T97 66T35 299Q35 466 126 566T358 666Q411 666 461 650V515Q422 536 370 536ZM280 110Q319 110 341 137T363 207T342
274T281 299Q227 299 186 256Q197 110 280 110Z" />
<glyph unicode="7" glyph-name="seven" horiz-adv-x="480" d="M20 655H460V531L206 0H52L307 531H20V655Z" />
<glyph unicode="8" glyph-name="eight" horiz-adv-x="545" d="M510 182Q510 96 444 43T270 -10T99 40T35 177Q35 283 130 330Q45 379 45 471T108 614T272 666T435 617T499 475T417 333Q510 290 510 182ZM270 550Q230 550 211 528T192 470T215 414T272 393T330
414T353 473Q353 550 270 550ZM181 150T202 128T270 106T340 128T364 185T340 242T271 265T204 240T181 183Z" />
<glyph unicode="9" glyph-name="nine" horiz-adv-x="533" d="M170 124Q248 124 291 159T347 271Q304 228 217 228T75 284T20 437T81 598T254 663T431 579T498 348Q498 169 413 81T186 -8Q118 -8 67 11V149Q119 124 170 124ZM254 346Q314 346 351 391Q339 533 255
533Q216 533 193 508T169 441T192 372T254 346Z" />
<glyph unicode=":" glyph-name="colon" horiz-adv-x="286" d="M55 51T55 88T80 150T143 176T205 151T231 88T206 26T143 0T81 25ZM55 382T55 419T80 481T143 507T205 482T231 419T206 357T143 331T81 356Z" />
<glyph unicode=";" glyph-name="semicolon" horiz-adv-x="294" d="M-7 -127L94 134H255L119 -127H-7ZM73 382T73 419T98 481T161 507T223 482T249 419T224 357T161 331T99 356Z" />
<glyph unicode="&lt;" glyph-name="less" horiz-adv-x="589" d="M45 271V409L544 587V443L190 340L544 237V93L45 271Z" />
<glyph unicode="=" glyph-name="equal" horiz-adv-x="589" d="M45 166V286H544V166H45ZM45 394V514H544V394H45Z" />
<glyph unicode="&gt;" glyph-name="greater" horiz-adv-x="589" d="M544 409V271L45 93V237L399 340L45 443V587L544 409Z" />
<glyph unicode="?" glyph-name="question" horiz-adv-x="458" d="M103 45T103 83T129 147T194 174T258 148T285 83T259 19T194 -8T130 18ZM65 654Q125 682 218 682T370 633T428 499Q428 454 410 418T365 360Q309 318 265 318L262 236H129L126 387Q280 387 280
481Q280 517 259 538T195 560Q130 560 65 517V654Z" />
<glyph unicode="@" glyph-name="at" horiz-adv-x="977" d="M468 -216Q334 -216 235 -158T88 -6T40 208T105 438T280 609T510 671T726 625T882 488T942 278T883 80T739 0Q621 0 586 109Q566 56 526 29T434 1Q353 1 306 62T259 220T320 380T463 444T584 371Q588
420 589 442H705L692 221Q692 113 743 113Q778 113 800 154T822 267Q822 409 736 481T514 553Q411 553 331 502T209 369T168 196Q168 61 254 -18T467 -98Q572 -98 668 -52L664 -175Q572 -216 468 -216ZM576 204L577 244Q571 291 546 315T484 340T417 305T387 216T413
133T474 105T537 130T576 204Z" />
<glyph unicode="A" glyph-name="A" horiz-adv-x="690" d="M502 0L461 138H225L184 0H23L248 674H442L667 0H502ZM262 262H424Q357 491 343 562Q337 518 262 262Z" />
<glyph unicode="B" glyph-name="B" horiz-adv-x="605" d="M65 674H327Q438 674 496 622T554 488Q554 435 526 395T453 341Q570 306 570 183Q570 103 513 52T356 0H65V674ZM219 551V400H276Q336 400 366 422T397 480Q397 551 301 551H219ZM219 123H300Q414 123
414 201T301 279H219V123Z" />
<glyph unicode="C" glyph-name="C" horiz-adv-x="613" d="M563 497Q488 543 402 543T260 487T205 336T260 188T405 133T563 181V30Q502 -8 387 -8Q239 -8 140 87T40 336T136 586T388 683Q502 683 563 645V497Z" />
<glyph unicode="D" glyph-name="D" horiz-adv-x="683" d="M65 674H297Q449 674 546 581T643 348Q643 186 548 93T295 0H65V674ZM223 126H293Q386 126 436 184T487 340T436 492T292 547H223V126Z" />
<glyph unicode="E" glyph-name="E" horiz-adv-x="544" d="M220 123H484V0H65V674H480V551H220V398H452V276H220V123Z" />
<glyph unicode="F" glyph-name="F" horiz-adv-x="506" d="M476 551H220V377H443V254H220V0H65V674H476V551Z" />
<glyph unicode="G" glyph-name="G" horiz-adv-x="706" d="M646 402V62Q550 -8 396 -8T141 85T40 337T145 591T413 686Q527 686 610 644V490Q514 545 416 545T262 489T206 338T261 187T411 131Q454 131 496 144V271H387V402H646Z" />
<glyph unicode="H" glyph-name="H" horiz-adv-x="686" d="M466 674H621V0H466V269H219V0H65V674H219V400H466V674Z" />
<glyph unicode="I" glyph-name="I" horiz-adv-x="304" d="M75 0V674H229V0H75Z" />
<glyph unicode="J" glyph-name="J" horiz-adv-x="392" d="M107 132Q178 132 178 208V673H332V204Q332 107 281 53T137 -1Q68 -1 30 19V155Q67 132 107 132Z" />
<glyph unicode="K" glyph-name="K" horiz-adv-x="662" d="M406 337L645 0H452L226 335L444 674H627L406 337ZM65 0V674H219V0H65Z" />
<glyph unicode="L" glyph-name="L" horiz-adv-x="488" d="M219 135H468V0H65V674H219V135Z" />
<glyph unicode="M" glyph-name="M" horiz-adv-x="893" d="M50 0L108 674H277Q398 359 413 313T439 226Q455 292 509 430L604 674H773L843 0H689L664 261L651 458Q630 397 484 7H393Q255 379 234 458Q234 387 225 261L204 0H50Z" />
<glyph unicode="N" glyph-name="N" horiz-adv-x="697" d="M65 0V674H234L391 395Q459 274 488 190Q478 264 478 395V674H632V0H463L302 279Q239 386 212 463L204 488Q219 398 219 279V0H65Z" />
<glyph unicode="O" glyph-name="O" horiz-adv-x="736" d="M205 434T205 339T249 189T368 133T487 188T531 339T487 489T368 545T249 490ZM218 -7T129 88T40 338T129 589T368 685T607 590T696 340T607 89T368 -7Z" />
<glyph unicode="P" glyph-name="P" horiz-adv-x="563" d="M65 674H297Q409 674 478 611T548 444T476 279T297 218H219V0H65V674ZM219 340H295Q342 346 367 376T392 447T366 518T295 551H219V340Z" />
<glyph unicode="Q" glyph-name="Q" horiz-adv-x="741" d="M40 184T40 339T129 589T368 685T607 590T696 339Q696 233 653 153T532 31L738 -84L563 -151L364 -7Q216 -6 128 89ZM205 434T205 339T249 189T368 133T487 188T531 339T487 489T368 545T249 490Z" />
<glyph unicode="R" glyph-name="R" horiz-adv-x="614" d="M219 234V0H65V674H298Q411 674 479 614T548 458Q548 314 425 259L596 0H412L266 234H219ZM219 549V359H292Q392 359 392 457Q392 500 366 524T295 549H219Z" />
<glyph unicode="S" glyph-name="S" horiz-adv-x="514" d="M286 547Q247 547 227 531T206 490T231 446T296 408T357 380T404 351T446 312Q484 262 484 196Q484 105 417 49T235 -8T45 34V189Q136 123 239 123Q274 123 297 141T320 190Q320 212 309 223T291 239T269
252T244 265Q213 280 183 293Q118 323 79 367T39 491T103 624T274 678T454 644V500Q373 547 286 547Z" />
<glyph unicode="T" glyph-name="T" horiz-adv-x="544" d="M514 674V550H350V0H195V550H30V674H514Z" />
<glyph unicode="U" glyph-name="U" horiz-adv-x="668" d="M454 260V674H608V261Q608 129 534 60T335 -10T135 59T60 254V674H214V255Q214 130 334 130T454 260Z" />
<glyph unicode="V" glyph-name="V" horiz-adv-x="659" d="M640 674L413 0H243L19 674H185L266 405Q310 261 330 139Q346 243 395 405L476 674H640Z" />
<glyph unicode="W" glyph-name="W" horiz-adv-x="971" d="M431 664H545Q655 269 677 168Q690 257 733 427L795 674H952L772 0H600Q497 372 488 426Q485 385 434 213L372 0H200L19 674H181Q263 346 276 282T296 168Q312 241 431 664Z" />
<glyph unicode="X" glyph-name="X" horiz-adv-x="663" d="M331 210L213 0H27L240 342L37 674H216L328 477L435 674H623L419 341L636 0H453L331 210Z" />
<glyph unicode="Y" glyph-name="Y" horiz-adv-x="643" d="M397 0H243V247L13 674H193Q294 432 319 360Q329 405 407 576L451 674H630L397 248V0Z" />
<glyph unicode="Z" glyph-name="Z" horiz-adv-x="621" d="M549 674V565L245 124H561V0H60V113L362 550H66V674H549Z" />
<glyph unicode="[" glyph-name="bracketleft" horiz-adv-x="363" d="M348 580H203V-68H348V-196H65V707H348V580Z" />
<glyph unicode="\" glyph-name="backslash" horiz-adv-x="464" d="M107 707L466 -103H315L-45 707H107Z" />
<glyph unicode="]" glyph-name="bracketright" horiz-adv-x="363" d="M298 707V-196H15V-68H160V580H15V707H298Z" />
<glyph unicode="^" glyph-name="asciicircum" horiz-adv-x="491" d="M458 332H323L246 478L168 332H33L184 594H307L458 332Z" />
<glyph unicode="_" glyph-name="underscore" horiz-adv-x="546" d="M20 -166V-45H526V-166H20Z" />
<glyph unicode="`" glyph-name="grave" horiz-adv-x="500" d="M280 798L366 621H245L134 798H280Z" />
<glyph unicode="a" glyph-name="a" horiz-adv-x="516" d="M74 482Q134 516 244 516T408 470T461 325V0H318V62Q286 -3 192 -3Q118 -3 77 39T35 149T88 257T247 298H311V333Q311 397 228 397T74 351V482ZM311 208H264Q227 208 207 192T187 151Q187 100 246 100Q277
100 294 119T311 171V208Z" />
<glyph unicode="b" glyph-name="b" horiz-adv-x="611" d="M206 707V429Q258 513 355 513T514 444T576 262T517 71T357 -6T206 79V0H60V707H206ZM206 194T237 155T316 116T396 153T428 254T397 355T319 392T240 357T206 258Z" />
<glyph unicode="c" glyph-name="c" horiz-adv-x="469" d="M187 185T223 148T320 111T439 146V24Q380 -8 297 -8Q183 -8 109 64T35 252Q37 366 109 440T306 515Q383 515 439 486V361Q386 394 323 394T222 358T183 252Q187 185 223 148Z" />
<glyph unicode="d" glyph-name="d" horiz-adv-x="611" d="M405 707H551V0H405V79Q354 -6 254 -6T95 71T35 261T97 444T256 513T405 429V707ZM183 191T215 154T295 116T374 155T405 258T372 357T292 392T215 355T183 255Z" />
<glyph unicode="e" glyph-name="e" horiz-adv-x="533" d="M458 29Q406 -5 290 -5T105 67T35 257T102 443T270 512T430 453T489 275Q489 252 481 196H183Q198 154 235 131T324 108Q401 108 458 151V29ZM353 300V312Q346 401 275 401Q240 401 213 376T177 300H353Z" />
<glyph unicode="f" glyph-name="f" horiz-adv-x="346" d="M366 592Q338 603 308 603Q241 603 241 526V507H336V400H241V0H96V400H30V507H96V526Q96 618 147 669T290 720Q337 720 366 710V592Z" />
<glyph unicode="g" glyph-name="g" horiz-adv-x="585" d="M385 507H530V49Q530 -73 457 -134T276 -196T87 -158V-9Q157 -65 259 -65Q325 -65 355 -37T385 51V85Q341 17 251 17T101 79T40 256T98 441T249 512T385 440V507ZM192 199T216 166T286 133T358 168T385
254Q385 390 286 390Q242 390 217 356T192 261Z" />
<glyph unicode="h" glyph-name="h" horiz-adv-x="580" d="M206 707V421Q245 512 358 512Q432 512 478 465T525 323V0H379V300Q379 344 357 369T300 394Q271 394 242 374Q206 348 206 268V0H60V707H206Z" />
<glyph unicode="i" glyph-name="i" horiz-adv-x="276" d="M53 619T53 654T78 714T138 739T198 714T223 654T198 594T138 569T78 594ZM65 0V507H211V0H65Z" />
<glyph unicode="j" glyph-name="j" horiz-adv-x="274" d="M56 619T56 654T81 714T141 739T201 714T226 654T201 594T141 569T81 594ZM17 -86Q69 -86 69 -19V507H214V-21Q214 -101 169 -149T39 -198Q4 -198 -40 -182V-71Q-7 -86 17 -86Z" />
<glyph unicode="k" glyph-name="k" horiz-adv-x="548" d="M206 0H60V690H206V280L366 507H534L358 264L537 0H368L206 249V0Z" />
<glyph unicode="l" glyph-name="l" horiz-adv-x="276" d="M65 0V707H211V0H65Z" />
<glyph unicode="m" glyph-name="m" horiz-adv-x="859" d="M206 507V428Q248 512 352 512T491 416Q508 461 548 486T642 512Q717 512 760 465T804 325V0H658V301Q658 344 641 369T591 394T532 367T505 268V0H359V301Q359 344 342 369T292 394T233 367T206 268V0H60V507H206Z"
/>
<glyph unicode="n" glyph-name="n" horiz-adv-x="580" d="M206 507V421Q225 463 264 487T359 512Q437 512 481 466T525 329V0H379V302Q379 347 358 370T298 394T233 363T206 268V0H60V507H206Z" />
<glyph unicode="o" glyph-name="o" horiz-adv-x="567" d="M283 400Q235 400 211 359T187 253T211 147T284 105T356 145T380 251Q380 400 283 400ZM532 141T467 67T283 -8T100 63T35 249T103 439T286 515T467 442T532 255Z" />
<glyph unicode="p" glyph-name="p" horiz-adv-x="611" d="M206 507V429Q259 513 358 513T516 444T576 258T519 68T359 -6T206 75V-187H60V507H206ZM206 194T238 155T319 116T398 152T428 255T398 356T321 392T240 357T206 258Z" />
<glyph unicode="q" glyph-name="q" horiz-adv-x="611" d="M405 507H551V-187H405V79Q354 -6 253 -6T93 68T35 258T95 443T254 513T405 429V507ZM183 191T215 154T295 116T374 155T405 258T372 357T292 392T215 355T183 255Z" />
<glyph unicode="r" glyph-name="r" horiz-adv-x="370" d="M205 507V413Q219 457 251 483T327 510Q351 510 365 506V368Q341 379 310 379Q263 379 234 345T205 253V0H59L60 507H205Z" />
<glyph unicode="s" glyph-name="s" horiz-adv-x="436" d="M256 398Q230 398 216 388T202 365T207 344T223 329T245 317T274 303Q342 274 374 238T406 153Q406 78 352 37T208 -4T55 27V157Q124 109 201 109Q256 109 256 144Q256 163 234 176Q218 185 191 196T154
213Q53 261 53 357Q53 431 109 472T247 513T380 492V367Q327 398 256 398Z" />
<glyph unicode="t" glyph-name="t" horiz-adv-x="386" d="M229 400V167Q229 140 244 126T292 112T356 132V11Q319 -5 256 -5Q83 -5 83 168V400H10V507H83V627H229V507H347V400H229Z" />
<glyph unicode="u" glyph-name="u" horiz-adv-x="580" d="M374 507H520V0H374V81Q334 -4 220 -4Q142 -4 99 39T55 168V507H201V201Q201 112 279 112Q374 112 374 239V507Z" />
<glyph unicode="v" glyph-name="v" horiz-adv-x="536" d="M192 0L5 507H158Q238 246 249 199T268 113Q277 178 313 291L381 507H531L342 0H192Z" />
<glyph unicode="w" glyph-name="w" horiz-adv-x="806" d="M168 0L5 507H156Q233 215 243 138Q250 198 292 340L341 507H467Q550 218 563 138Q570 197 610 340L657 507H801L639 0H489Q416 277 404 354Q394 287 362 166L318 0H168Z" />
<glyph unicode="x" glyph-name="x" horiz-adv-x="526" d="M340 253L509 0H350L265 152L174 0H16L197 254L27 507H189L271 356L362 507H522L340 253Z" />
<glyph unicode="y" glyph-name="y" horiz-adv-x="532" d="M103 -198Q72 -198 47 -193V-77Q63 -81 81 -81Q164 -81 201 8L5 507H164Q261 229 273 172Q286 221 377 507H527L344 15Q265 -198 103 -198Z" />
<glyph unicode="z" glyph-name="z" horiz-adv-x="479" d="M427 507V406L205 113H439V0H40V105L262 395H49V507H427Z" />
<glyph unicode="{" glyph-name="braceleft" horiz-adv-x="380" d="M40 325H57Q96 325 119 354T142 421Q142 437 136 475T130 535Q130 613 174 664T289 715Q320 715 355 703V568Q340 577 322 577T288 562T273 528T279 471T285 407Q285 346 251 304T169 255Q216
249 250 206T285 102Q285 78 279 39T273 -19T288 -52T321 -68T355 -59V-194Q320 -206 289 -206Q219 -206 175 -155T130 -26Q130 -4 136 34T142 88Q142 126 119 155T57 185L40 184V325Z" />
<glyph unicode="|" glyph-name="bar" horiz-adv-x="280" d="M70 -194V695H210V-194H70Z" />
<glyph unicode="}" glyph-name="braceright" horiz-adv-x="380" d="M323 325H340V184Q333 185 323 185Q284 185 261 156T238 88Q238 72 244 34T250 -26Q250 -104 206 -155T91 -206Q60 -206 25 -194V-59Q40 -68 58 -68T92 -53T107 -19T101 38T95 102Q95 163 129
206T211 255Q164 261 130 303T95 407Q95 431 101 470T107 528T92 561T59 577T25 568V703Q60 715 91 715Q161 715 205 664T250 535Q250 513 244 475T238 421Q238 383 261 354T323 325Z" />
<glyph unicode="~" glyph-name="asciitilde" horiz-adv-x="654" d="M452 189Q395 189 331 213T233 238T177 224T129 180L28 260Q59 304 104 336T207 369T331 345T425 320T476 334T524 379L625 298Q548 189 452 189Z" />
</font>
</defs>
</svg>
