<?xml version="1.0" standalone="no"?> <!DOCTYPE svg PUBLIC "-//W3C//DTD SVG 1.0//EN" "http://www.w3.org/TR/2001/REC-SVG-20010904/DTD/svg10.dtd" > <svg xmlns="http://www.w3.org/2000/svg" width="100%" height="100%">
<defs >
<font id="Hind-Semibold" horiz-adv-x="549" ><font-face
    font-family="Hind Semibold"
    units-per-em="1000"
    panose-1="2 0 0 0 0 0 0 0 0 0"
    ascent="1055"
    descent="-546"
    alphabetic="0" />
<missing-glyph horiz-adv-x="516" d="M257 302H253L153 93H93L227 353L93 608H153L258 402H262L362 608H422L287 347L422 93H362L257 302ZM57 650V51H457V650H57ZM3 0V701H510V0H3Z" />
<glyph unicode=" " glyph-name="space" horiz-adv-x="248" />
<glyph unicode="!" glyph-name="exclam" horiz-adv-x="275" d="M102 -8T80 14T57 70T79 127T135 150T192 127T215 71T192 15T136 -8ZM80 224V674H195V224H80Z" />
<glyph unicode="&quot;" glyph-name="quotedbl" horiz-adv-x="352" d="M208 429V681H311V429H208ZM42 429V681H144V429H42Z" />
<glyph unicode="#" glyph-name="numbersign" horiz-adv-x="739" d="M691 415H566L531 253H650V160H512L478 0H374L408 160H255L221 0H118L152 160H48V253H171L206 415H90V511H226L260 673H364L330 511H483L517 673H620L586 511H691V415ZM428 253L462 415H309L275
253H428Z" />
<glyph unicode="$" glyph-name="dollar" horiz-adv-x="510" d="M277 569Q230 569 204 548T177 494Q177 458 214 434Q243 414 288 394T359 359T412 322Q469 275 469 193T420 60T286 -4V-115H185V-5Q102 3 46 35V164Q132 102 234 102Q280 102 308 124T336 185Q336
217 310 238Q283 260 261 269T219 288Q127 326 84 371T41 491T93 617T234 677V787H336V675Q394 667 437 646V524Q362 569 277 569Z" />
<glyph unicode="%" glyph-name="percent" horiz-adv-x="925" d="M668 250T645 227T622 171T645 115T700 91T756 114T780 170T757 226T701 250ZM192 605T169 582T145 526T168 470T224 446T280 469T304 525T281 581T225 605ZM47 451T47 525T99 651T225 703T351 651T403
526T351 400T225 347T99 399ZM523 96T523 170T575 296T700 348T826 296T879 170T827 44T701 -8T575 44ZM219 -1L590 691H701L329 -1H219Z" />
<glyph unicode="&amp;" glyph-name="ampersand" horiz-adv-x="727" d="M522 47Q440 -8 322 -8T130 46T56 181Q56 242 92 284T206 352Q127 437 127 515T184 641T335 689T485 640T542 507Q542 448 508 403T393 319L518 197Q539 235 541 288H651Q648 194 598 121Q691
30 724 0H572Q559 12 522 47ZM420 541T397 564T335 588T273 568T250 511Q250 464 326 386Q420 434 420 501Q420 541 397 564ZM224 265T202 242T179 181T221 119T327 94T444 122L277 283Q224 265 202 242Z" />
<glyph unicode="&apos;" glyph-name="quotesingle" horiz-adv-x="186" d="M42 429V681H144V429H42Z" />
<glyph unicode="(" glyph-name="parenleft" horiz-adv-x="328" d="M214 -196Q52 7 52 261T208 707H335Q260 612 220 490T179 258T221 26T344 -196H214Z" />
<glyph unicode=")" glyph-name="parenright" horiz-adv-x="328" d="M120 707Q276 514 276 261T113 -196H-16Q64 -96 106 25T148 257T108 490T-7 707H120Z" />
<glyph unicode="*" glyph-name="asterisk" horiz-adv-x="470" d="M305 451H301Q321 438 336 417L393 338L314 281L257 359Q242 382 236 401Q230 382 214 360L156 281L77 338L135 417Q151 437 169 450H166Q144 450 121 458L28 488L59 581L151 551Q175 543 194 529Q186
550 186 577V674H284V577Q284 550 276 529Q292 542 319 551L412 581L442 488L350 458Q326 451 305 451Z" />
<glyph unicode="+" glyph-name="plus" horiz-adv-x="576" d="M526 393V285H342V102H231V285H50V393H231V578H342V393H526Z" />
<glyph unicode="," glyph-name="comma" horiz-adv-x="268" d="M-7 -126L91 121H230L97 -126H-7Z" />
<glyph unicode="-" glyph-name="hyphen" horiz-adv-x="353" d="M50 214V315H304V214H50Z" />
<glyph unicode="." glyph-name="period" horiz-adv-x="223" d="M34 38T34 70T57 124T112 147T166 125T189 70T167 15T112 -8T57 15Z" />
<glyph unicode="/" glyph-name="slash" horiz-adv-x="441" d="M-5 -103L356 707H481L119 -103H-5Z" />
<glyph unicode="0" glyph-name="zero" horiz-adv-x="546" d="M161 440T161 330T190 161T273 101T355 160T385 330T355 499T273 557T191 499ZM160 -8T99 84T38 330T99 575T272 666T446 576T508 331T448 84T274 -8Z" />
<glyph unicode="1" glyph-name="one" horiz-adv-x="358" d="M292 654V0H173V524L13 427V552L186 654H292Z" />
<glyph unicode="2" glyph-name="two" horiz-adv-x="498" d="M460 103V0H33V96Q150 179 235 273T320 444Q320 494 291 522T207 550Q124 550 48 488V605Q81 630 130 646T228 662Q324 662 384 610T445 462Q445 284 199 103H460Z" />
<glyph unicode="3" glyph-name="three" horiz-adv-x="476" d="M200 662Q303 662 361 612T420 484Q420 371 317 330Q373 316 404 278T435 180Q435 98 375 47T209 -5T33 28V145Q111 103 197 103Q251 103 281 128T312 194Q312 281 171 281H133V382H171Q224 382 260
405T296 470Q296 554 193 554Q125 554 57 512V625Q125 662 200 662Z" />
<glyph unicode="4" glyph-name="four" horiz-adv-x="554" d="M532 250V147H446V0H326V147H35V250L253 655H446V250H532ZM326 250V579L154 250H326Z" />
<glyph unicode="5" glyph-name="five" horiz-adv-x="504" d="M192 552V408Q221 414 248 414Q353 414 410 360T468 210T402 53T225 -7T44 28V143Q110 103 197 103Q344 103 344 216Q344 260 313 285T214 310T74 276V655H426V552H192Z" />
<glyph unicode="6" glyph-name="six" horiz-adv-x="533" d="M364 560Q284 560 234 506T170 367Q230 422 314 422T451 365T504 211T444 49T274 -16T103 69T42 298Q42 464 129 566T356 669Q410 669 454 653V540Q415 560 364 560ZM171 175T202 134T280 92T353 124T380
208T354 289T283 318Q218 318 165 263Q171 175 202 134Z" />
<glyph unicode="7" glyph-name="seven" horiz-adv-x="469" d="M17 655H452V551L192 0H64L325 551H17V655Z" />
<glyph unicode="8" glyph-name="eight" horiz-adv-x="541" d="M500 178Q500 94 435 43T268 -9T104 40T41 173Q41 283 144 328Q51 375 51 469T113 613T270 664T426 616T488 473T398 331Q500 291 500 178ZM367 515T344 540T272 566T198 540T173 472T201 406T270
382T339 406T367 472ZM162 140T189 115T269 89T351 116T379 182T351 248T269 275T189 246T162 179Z" />
<glyph unicode="9" glyph-name="nine" horiz-adv-x="522" d="M172 102Q336 102 360 280Q315 230 227 230T82 287T26 440T85 599T252 663T422 580T484 358Q484 179 405 86T183 -8Q118 -8 66 11V126Q118 102 172 102ZM253 330Q322 330 364 383Q360 467 331 510T253
554T178 524T150 443T178 361T253 330Z" />
<glyph unicode=":" glyph-name="colon" horiz-adv-x="267" d="M57 44T57 76T79 130T133 153T187 131T210 76T188 22T133 0T79 22ZM57 372T57 404T79 458T133 481T187 459T210 404T188 350T133 327T79 349Z" />
<glyph unicode=";" glyph-name="semicolon" horiz-adv-x="268" d="M-7 -126L91 121H230L97 -126H-7ZM72 372T72 404T94 458T148 481T203 459T226 404T203 350T148 327T94 349Z" />
<glyph unicode="&lt;" glyph-name="less" horiz-adv-x="565" d="M50 283V398L519 580V459Q199 354 171 341Q197 329 519 221V101L50 283Z" />
<glyph unicode="=" glyph-name="equal" horiz-adv-x="576" d="M50 181V282H526V181H50ZM50 399V499H526V399H50Z" />
<glyph unicode="&gt;" glyph-name="greater" horiz-adv-x="565" d="M516 398V283L47 101V221Q365 327 394 341Q372 352 47 459V580L516 398Z" />
<glyph unicode="?" glyph-name="question" horiz-adv-x="456" d="M154 -8T132 14T109 70T131 127T187 150T244 127T267 71T244 15T188 -8ZM58 649Q121 682 214 682T365 633T423 499Q423 454 405 418T360 361Q306 320 247 316L245 224H134L131 381Q300 381 300
487Q300 529 274 554T188 579T58 534V649Z" />
<glyph unicode="@" glyph-name="at" horiz-adv-x="950" d="M448 -198Q262 -198 155 -84T48 199Q48 324 110 428T278 590T509 649Q675 649 792 546T910 272Q910 155 853 82T717 8Q609 8 578 109Q532 8 427 8Q349 8 304 65T258 215T317 370T457 433T578 364Q580
386 582 430H680Q664 281 664 208Q664 102 721 102Q759 102 784 146T809 264Q809 404 724 477T497 550T256 446T156 200T240 -20T448 -99Q550 -99 640 -54L636 -159Q555 -198 448 -198ZM569 199Q569 228 571 242Q564 292 539 318T472 344T398 306T366 211T392 126T456
97T525 123T569 199Z" />
<glyph unicode="A" glyph-name="A" horiz-adv-x="674" d="M511 0L463 153H208L160 0H28L256 674H419L647 0H511ZM241 256H431Q348 529 336 580Q328 537 241 256Z" />
<glyph unicode="B" glyph-name="B" horiz-adv-x="592" d="M70 674H309Q417 674 477 623T537 491Q537 436 507 396T430 342Q484 329 519 290T554 176T498 51T343 0H70V674ZM196 571V390H272Q340 390 374 417T408 484T380 548T293 571H196ZM196 103H304Q425 103
425 195Q425 289 299 289H196V103Z" />
<glyph unicode="C" glyph-name="C" horiz-adv-x="609" d="M485 567T393 567T240 505T178 337T239 170T398 108T562 158V32Q500 -8 388 -8Q238 -8 141 86T43 335T139 586T388 683Q499 683 561 646V523Q485 567 393 567Z" />
<glyph unicode="D" glyph-name="D" horiz-adv-x="675" d="M70 674H290Q441 674 537 581T633 340T540 96T290 0H70V674ZM199 105H288Q394 105 449 170T504 339T446 505T286 568H199V105Z" />
<glyph unicode="E" glyph-name="E" horiz-adv-x="528" d="M197 103H472V0H70V674H468V571H197V388H438V286H197V103Z" />
<glyph unicode="F" glyph-name="F" horiz-adv-x="499" d="M465 571H197V372H431V269H197V0H70V674H465V571Z" />
<glyph unicode="G" glyph-name="G" horiz-adv-x="693" d="M630 393V69H629L630 58Q538 -8 400 -8Q240 -8 142 85T43 336T144 590T401 686Q516 686 598 643V514Q506 569 404 569T240 506T178 337T238 170T405 108Q457 108 506 126V285H382V393H630Z" />
<glyph unicode="H" glyph-name="H" horiz-adv-x="670" d="M473 674H600V0H473V283H196V0H70V674H196V392H473V674Z" />
<glyph unicode="I" glyph-name="I" horiz-adv-x="282" d="M78 0V674H204V0H78Z" />
<glyph unicode="J" glyph-name="J" horiz-adv-x="379" d="M110 110Q187 110 187 192V673H313V192Q313 97 265 48T133 -1Q70 -1 30 20V134Q68 110 110 110Z" />
<glyph unicode="K" glyph-name="K" horiz-adv-x="628" d="M356 336L607 0H448L206 334L439 674H590L356 336ZM70 0V674H196V0H70Z" />
<glyph unicode="L" glyph-name="L" horiz-adv-x="484" d="M196 112H459V0H70V674H196V112Z" />
<glyph unicode="M" glyph-name="M" horiz-adv-x="880" d="M58 0L112 674H256Q379 346 396 295T432 183Q463 287 518 429L612 674H756L822 0H696L672 263L654 499Q627 423 474 10H388L296 263L217 496Q217 434 184 0H58Z" />
<glyph unicode="N" glyph-name="N" horiz-adv-x="688" d="M70 0V674H213Q417 319 447 262T500 155Q492 238 492 393V674H619V0H475L311 280Q233 412 185 522Q196 427 196 281V0H70Z" />
<glyph unicode="O" glyph-name="O" horiz-adv-x="723" d="M276 570T227 508T178 340T228 171T362 109T496 170T545 339T496 508T362 570ZM217 -7T130 88T43 339T129 591T362 686T594 592T680 340T594 88T362 -7Z" />
<glyph unicode="P" glyph-name="P" horiz-adv-x="556" d="M70 674H281Q395 674 463 612T532 450T462 290T284 229H196V0H70V674ZM196 331H285Q341 335 372 369T404 452T371 535T281 571H196V331Z" />
<glyph unicode="Q" glyph-name="Q" horiz-adv-x="729" d="M362 -7Q217 -7 130 88T43 339T129 591T362 686T594 592T680 339Q680 229 636 148T512 27L717 -92L575 -147L377 -7H362ZM276 570T227 508T178 340T228 171T362 109T496 170T545 339T496 508T362 570Z" />
<glyph unicode="R" glyph-name="R" horiz-adv-x="589" d="M196 246V0H70V674H278Q393 674 458 616T524 461Q523 389 489 340T396 266L569 0H418L265 246H196ZM196 570V350H280Q338 350 367 379T396 461T366 542T278 570H196Z" />
<glyph unicode="S" glyph-name="S" horiz-adv-x="518" d="M285 569Q238 569 212 548T185 494T213 440T290 396T364 361T418 323Q477 275 477 187T413 46T239 -8T54 35V164Q140 102 242 102Q288 102 316 124T344 185Q344 203 337 217T308 245Q266 273 213 294Q176
311 153 324T103 361Q49 407 49 491T112 627T276 679T445 646V524Q370 569 285 569Z" />
<glyph unicode="T" glyph-name="T" horiz-adv-x="520" d="M495 674V570H324V0H197V570H26V674H495Z" />
<glyph unicode="U" glyph-name="U" horiz-adv-x="659" d="M467 258V674H593V259Q593 128 523 60T331 -9T138 58T66 252V674H192V253Q192 176 230 142T329 107Q467 107 467 258Z" />
<glyph unicode="V" glyph-name="V" horiz-adv-x="651" d="M625 674L395 0H251L25 674H162Q296 241 325 114Q349 226 406 406L490 674H625Z" />
<glyph unicode="W" glyph-name="W" horiz-adv-x="958" d="M431 664H533L602 425L682 135Q707 274 744 426L805 674H933L761 0H615Q503 391 483 473Q469 401 350 0H205L25 674H158Q244 333 285 137Q318 266 431 664Z" />
<glyph unicode="X" glyph-name="X" horiz-adv-x="644" d="M318 453L443 674H596L392 341L613 0H463L320 233Q305 204 249 111T183 0H32L246 341L42 674H189L318 453Z" />
<glyph unicode="Y" glyph-name="Y" horiz-adv-x="624" d="M374 0H248V246L18 674H165Q286 412 310 347Q319 384 413 576L459 674H606L374 250V0Z" />
<glyph unicode="Z" glyph-name="Z" horiz-adv-x="601" d="M531 674V581L208 103H544V0H57V96L379 571H62V674H531Z" />
<glyph unicode="[" glyph-name="bracketleft" horiz-adv-x="343" d="M332 602H185V-85H332V-191H70V707H332V602Z" />
<glyph unicode="\" glyph-name="backslash" horiz-adv-x="441" d="M85 707L446 -103H321L-41 707H85Z" />
<glyph unicode="]" glyph-name="bracketright" horiz-adv-x="343" d="M273 707V-191H11V-85H158V602H11V707H273Z" />
<glyph unicode="^" glyph-name="asciicircum" horiz-adv-x="480" d="M442 332H328L240 501L151 332H38L185 594H296L442 332Z" />
<glyph unicode="_" glyph-name="underscore" horiz-adv-x="552" d="M23 -141V-40H529V-141H23Z" />
<glyph unicode="`" glyph-name="grave" horiz-adv-x="470" d="M253 798L344 629H243L127 798H253Z" />
<glyph unicode="a" glyph-name="a" horiz-adv-x="507" d="M242 516Q448 516 448 324V0H329V61Q294 -4 197 -4Q125 -4 83 38T40 148T94 257T250 298H324V329Q324 371 302 393T227 415Q146 415 78 370V481Q135 516 242 516ZM324 218H262Q215 218 190 199T165 149Q165
85 239 85Q279 85 301 108T324 170V218Z" />
<glyph unicode="b" glyph-name="b" horiz-adv-x="595" d="M187 707V430Q240 514 337 514T495 444T557 259T499 69T340 -7T187 78V0H66V707H187ZM187 179T223 138T312 96T400 139T435 254T400 369T314 412T225 374T187 257Z" />
<glyph unicode="c" glyph-name="c" horiz-adv-x="470" d="M163 180T204 136T312 92T432 126V22Q379 -9 300 -9Q183 -9 111 65T38 251T110 439T306 515Q380 515 432 487V381Q382 413 315 413T205 369T161 252Q163 180 204 136Z" />
<glyph unicode="d" glyph-name="d" horiz-adv-x="594" d="M409 707H529V0H409V79Q357 -7 256 -7T97 69T38 259T99 443T258 514T409 429V707ZM161 182T196 139T284 96T373 137T409 257T371 373T283 412T197 370T161 255Z" />
<glyph unicode="e" glyph-name="e" horiz-adv-x="529" d="M299 -5Q178 -5 108 67T38 256T104 443T269 512T426 452T484 277Q484 249 477 205H159Q172 150 213 121T326 92T452 132V28Q399 -5 299 -5ZM370 295V310Q368 359 344 388T274 418T198 387T157 295H370Z" />
<glyph unicode="f" glyph-name="f" horiz-adv-x="340" d="M297 618Q224 618 224 536V507H325V417H224V0H104V417H30V507H104V537Q104 622 151 670T281 718Q319 718 347 709V608Q321 618 297 618Z" />
<glyph unicode="g" glyph-name="g" horiz-adv-x="571" d="M392 507H512V46Q512 -74 443 -134T270 -195T91 -159V-37Q159 -85 254 -85Q392 -85 392 47V91Q346 16 255 16T103 78T42 255T99 441T251 513T392 434V507ZM167 189T198 152T277 114T359 152T392 262T360
372T278 410T197 370T167 259Z" />
<glyph unicode="h" glyph-name="h" horiz-adv-x="565" d="M185 707V421Q226 513 340 513Q414 513 459 467T505 332V0H385V311Q385 359 361 386T295 413T220 380T185 272V0H65V707H185Z" />
<glyph unicode="i" glyph-name="i" horiz-adv-x="260" d="M100 586T79 607T58 658T79 710T130 731T181 710T202 659T181 607T130 586ZM70 0V507H190V0H70Z" />
<glyph unicode="j" glyph-name="j" horiz-adv-x="257" d="M101 586T80 607T59 658T80 710T131 731T183 710T204 659T183 607T132 586ZM19 -101Q72 -101 72 -32V507H192V-34Q192 -109 151 -153T34 -197Q-2 -197 -42 -181V-86Q-7 -101 19 -101Z" />
<glyph unicode="k" glyph-name="k" horiz-adv-x="522" d="M185 0H65V695H185V269L364 507H504L318 265L508 0H367L185 262V0Z" />
<glyph unicode="l" glyph-name="l" horiz-adv-x="260" d="M70 0V707H190V0H70Z" />
<glyph unicode="m" glyph-name="m" horiz-adv-x="843" d="M185 507V427Q228 513 333 513T472 417Q492 463 532 488T623 513Q700 513 742 467T784 334V0H663V311Q663 413 585 413Q546 413 516 379T485 272V0H364V311Q364 413 286 413Q247 413 216 379T185 272V0H65V507H185Z"
/>
<glyph unicode="n" glyph-name="n" horiz-adv-x="565" d="M185 507V420Q228 513 341 513Q417 513 461 467T505 337V0H385V312Q385 362 361 387T293 413T217 377T185 272V0H65V507H185Z" />
<glyph unicode="o" glyph-name="o" horiz-adv-x="565" d="M402 324T373 370T285 417T195 370T164 253T195 135T284 88T372 134T402 252ZM527 140T463 66T283 -8T103 64T38 250T105 439T285 515T463 442T527 254Z" />
<glyph unicode="p" glyph-name="p" horiz-adv-x="594" d="M185 507V429Q239 514 339 514T497 443T556 257T498 68T338 -7T185 76V-191H65V507H185ZM185 180T222 138T312 96T399 137T433 254T399 370T313 412T223 373T185 257Z" />
<glyph unicode="q" glyph-name="q" horiz-adv-x="594" d="M409 507H529V-191H409V78Q357 -7 257 -7T97 67T38 257T97 443T256 514T409 429V507ZM161 181T196 139T284 96T372 138T409 257T372 373T283 412T196 370T161 254Z" />
<glyph unicode="r" glyph-name="r" horiz-adv-x="353" d="M185 507V417Q220 511 313 511Q334 511 347 508V392Q324 402 296 402Q247 402 216 362T185 262V0H64L65 507H185Z" />
<glyph unicode="s" glyph-name="s" horiz-adv-x="427" d="M243 415Q212 415 195 402T177 367Q177 350 186 341T201 327T218 316Q245 303 259 297Q328 268 362 233T396 146Q396 75 345 35T205 -5T57 26V136Q124 91 202 91Q235 91 253 103T272 133T266 161T243 182Q221
195 199 204T175 215T170 217T165 219Q54 269 54 363Q54 433 107 473T238 513T368 491V385Q318 415 243 415Z" />
<glyph unicode="t" glyph-name="t" horiz-adv-x="379" d="M211 417V159Q211 127 228 111T279 94T345 115V12Q310 -5 255 -5Q91 -5 91 161V417H15V507H91V629H211V507H337V417H211Z" />
<glyph unicode="u" glyph-name="u" horiz-adv-x="565" d="M379 507H500V0H379V83Q339 -5 223 -5Q146 -5 103 39T60 164V507H180V192Q180 144 203 119T273 94T349 129T379 235V507Z" />
<glyph unicode="v" glyph-name="v" horiz-adv-x="524" d="M196 0L13 507H139Q250 151 261 94Q271 150 318 292L388 507H512L326 0H196Z" />
<glyph unicode="w" glyph-name="w" horiz-adv-x="801" d="M173 0L13 507H138Q224 194 238 115Q248 176 296 340L345 507H454Q548 187 561 114Q571 173 620 340L668 507H788L627 0H497Q415 303 400 379Q385 302 303 0H173Z" />
<glyph unicode="x" glyph-name="x" horiz-adv-x="508" d="M318 255L488 0H355L255 170L151 0H19L196 256L30 507H165L260 342L360 507H494L318 255Z" />
<glyph unicode="y" glyph-name="y" horiz-adv-x="517" d="M93 -189Q64 -189 43 -184V-85Q59 -89 77 -89Q168 -89 206 10L6 507H139Q253 193 265 148Q268 159 382 507H508L325 14Q249 -189 93 -189Z" />
<glyph unicode="z" glyph-name="z" horiz-adv-x="469" d="M415 507V423L179 97H428V0H42V89L277 411H51V507H415Z" />
<glyph unicode="{" glyph-name="braceleft" horiz-adv-x="363" d="M342 591Q327 600 307 600T271 582T255 542T262 476T270 406Q270 347 237 307T152 258Q204 250 237 209T270 108Q270 82 263 39T255 -27T270 -67T306 -85T342 -76V-189Q311 -200 283 -200Q219
-200 177 -153T135 -31Q135 -7 143 34T151 94Q151 135 129 165T65 199H43V316Q54 316 65 317Q105 319 128 349T151 421Q151 439 143 480T135 546Q135 620 177 667T283 714Q313 714 342 704V591Z" />
<glyph unicode="|" glyph-name="bar" horiz-adv-x="260" d="M73 -194V695H187V-194H73Z" />
<glyph unicode="}" glyph-name="braceright" horiz-adv-x="363" d="M79 714Q143 714 185 667T227 546Q227 522 220 481T212 421Q212 380 234 350T298 317Q308 316 320 316V199H298Q257 195 235 165T212 94Q212 75 219 34T227 -31Q227 -105 185 -152T79 -200Q52
-200 21 -189V-76Q36 -85 56 -85T92 -68T108 -28T101 38T93 108Q93 167 126 208T211 258Q159 266 126 306T93 406Q93 432 100 476T108 542T93 582T57 600T21 591V704Q50 714 79 714Z" />
<glyph unicode="~" glyph-name="asciitilde" horiz-adv-x="633" d="M440 191Q386 191 320 220T222 249Q162 249 114 187L31 254Q62 298 105 328T203 358T324 329T420 300T471 315T517 359L601 293Q534 191 440 191Z" />
</font>
</defs>
</svg>
