<?xml version="1.0" standalone="no"?> <!DOCTYPE svg PUBLIC "-//W3C//DTD SVG 1.0//EN" "http://www.w3.org/TR/2001/REC-SVG-20010904/DTD/svg10.dtd" > <svg xmlns="http://www.w3.org/2000/svg" width="100%" height="100%">
<defs >
<font id="AvenirNext-UltraLight" horiz-adv-x="573" ><font-face
    font-family="Avenir Next Ultra Light"
    units-per-em="1000"
    panose-1="2 11 2 3 2 2 2 2 2 4"
    ascent="1000"
    descent="-366"
    alphabetic="0" />
<missing-glyph horiz-adv-x="512" d="M222 117V184H278V117H222ZM225 234L223 251Q223 307 236 332Q243 345 254 359T282 391Q298 406 308 417T323 438T330 456T332 474Q332 510 310 534T256 559Q225 559 203 537T174 464L124 472Q131 544 168 576T259 609Q313
609 348 574T383 478Q383 446 371 420T320 358Q283 325 277 306Q271 286 271 234H225ZM462 50V667H50V50H462ZM512 718V0H0V718H512Z" />
<glyph unicode=" " glyph-name="space" horiz-adv-x="250" />
<glyph unicode="!" glyph-name="exclam" horiz-adv-x="276" d="M138 45Q146 45 153 38T161 19Q161 8 154 1T138 -6Q129 -6 122 1T115 19Q115 31 122 38T138 45ZM149 195H127V708H149V195Z" />
<glyph unicode="&quot;" glyph-name="quotedbl" horiz-adv-x="404" d="M119 480V708H141V480H119ZM263 480V708H285V480H263Z" />
<glyph unicode="#" glyph-name="numbersign" horiz-adv-x="550" d="M378 453L352 257H464V240H350L320 0H301L331 240H159L129 0H110L140 240H29V257H142L169 453H58V470H171L201 708H220L189 470H361L392 708H411L380 470H492V453H378ZM188 453L162 257H333L359
453H188Z" />
<glyph unicode="$" glyph-name="dollar" horiz-adv-x="560" d="M277 -84H255V-13Q192 -11 142 12T55 76L72 91Q108 51 156 30T255 6V349Q214 362 180 377T120 415T82 467T68 540Q68 579 82 610T121 665T180 702T255 720V792H277V721Q335 721 385 703T468 643L451
628Q423 663 378 682T277 702V364Q320 350 357 335T421 299T465 247T481 173Q481 130 466 96T423 39T358 2T277 -13V-84ZM277 6Q314 7 347 19T405 52T444 104T459 174Q459 213 444 240T403 286T344 319T277 343V6ZM255 700Q223 697 194 685T141 653T104 605T90
539Q90 500 104 473T141 427T193 394T255 371V700Z" />
<glyph unicode="%" glyph-name="percent" horiz-adv-x="820" d="M366 556Q366 522 354 493T320 443T270 410T209 398Q177 398 149 410T99 443T66 493T53 556Q53 589 65 618T99 668T148 702T209 715Q241 715 269 703T319 669T353 618T366 556ZM344 556Q344 585
334 610T305 655T262 685T209 696Q181 696 157 685T114 655T86 611T75 556Q75 526 85 501T114 457T156 428T209 417Q237 417 261 427T304 457T333 501T344 556ZM767 150Q767 116 755 87T721 37T671 4T610 -8Q578 -8 550 4T500 37T467 87T454 150Q454 183 466 212T500
262T549 296T610 309Q642 309 670 297T720 263T754 212T767 150ZM745 150Q745 179 735 204T706 249T663 279T610 290Q582 290 558 279T515 249T487 205T476 150Q476 120 486 95T515 51T557 22T610 11Q638 11 662 21T705 51T734 95T745 150ZM195 -27L179 -16L619
736L635 725L195 -27Z" />
<glyph unicode="&amp;" glyph-name="ampersand" horiz-adv-x="704" d="M617 0L501 124Q456 54 400 18T275 -18Q233 -18 197 -5T133 34T91 96T75 179Q75 218 87 248T123 304T178 351T248 393Q221 423 203 447T174 492T159 533T154 574Q154 608 166 636T198 684T247
715T309 726Q340 726 367 715T414 685T445 641T457 586Q457 550 444 523T408 472T352 429T281 388L496 157L611 369H636L512 144L646 0H617ZM435 582Q435 610 425 633T398 673T357 699T307 708Q280 708 256 698T215 671T187 629T176 575Q176 527 200 488T268 401Q304
420 334 439T387 479T422 525T435 582ZM262 378Q229 362 200 343T147 299T111 245T97 179Q97 138 111 105T151 49T209 14T280 1Q344 1 397 39T486 140L262 378Z" />
<glyph unicode="&apos;" glyph-name="quotesingle" horiz-adv-x="260" d="M119 480V708H141V480H119Z" />
<glyph unicode="(" glyph-name="parenleft" horiz-adv-x="300" d="M74 288Q74 348 83 408T108 525T149 634T203 732L223 722Q193 681 170 629T130 519T105 402T96 288Q96 234 104 175T129 58T169 -52T223 -146L203 -156Q173 -111 149 -59T109 51T83 168T74 288Z" />
<glyph unicode=")" glyph-name="parenright" horiz-adv-x="300" d="M224 288Q224 228 215 168T190 51T149 -58T95 -156L75 -146Q105 -105 128 -53T168 57T193 174T202 288Q202 342 194 401T169 518T129 628T75 722L95 732Q125 687 149 635T189 525T215 408T224 288Z" />
<glyph unicode="*" glyph-name="asterisk" horiz-adv-x="444" d="M394 589L400 572L235 522L337 380L323 370L222 513L121 370L107 380L209 522L44 572L50 589L213 537V708H231V537L394 589Z" />
<glyph unicode="+" glyph-name="plus" horiz-adv-x="666" d="M345 65H324V295H100V314H324V544H345V314H566V295H345V65Z" />
<glyph unicode="," glyph-name="comma" horiz-adv-x="240" d="M88 -138H71L128 90H152L88 -138Z" />
<glyph unicode="-" glyph-name="hyphen" horiz-adv-x="300" d="M60 244V264H240V244H60Z" />
<glyph unicode="." glyph-name="period" horiz-adv-x="240" d="M120 -6Q111 -6 104 1T97 20Q97 31 104 38T120 45Q129 45 136 38T143 20Q143 8 136 1T120 -6Z" />
<glyph unicode="/" glyph-name="slash" horiz-adv-x="370" d="M42 -15L23 -8L330 729L349 722L42 -15Z" />
<glyph unicode="0" glyph-name="zero" horiz-adv-x="560" d="M280 -12Q212 -12 169 22T102 110T69 228T60 354Q60 415 69 480T102 598T169 685T280 720Q348 720 391 686T458 598T491 480T500 354Q500 293 491 228T458 110T391 23T280 -12ZM280 700Q235 700 203
682T148 634T113 567T93 491T84 416T82 354Q82 327 84 292T93 218T113 142T148 75T202 27T280 8Q325 8 357 26T412 74T447 141T467 217T476 291T478 354Q478 380 476 416T467 490T447 566T412 633T358 681T280 700Z" />
<glyph unicode="1" glyph-name="one" horiz-adv-x="560" d="M290 0V682L156 568L143 585L290 708H312V0H290Z" />
<glyph unicode="2" glyph-name="two" horiz-adv-x="560" d="M63 0V26L310 316Q366 381 399 434T432 541Q432 578 420 607T387 658T336 690T272 701Q214 701 170 671T108 580L87 587Q106 651 156 685T272 720Q312 720 345 707T403 671T440 616T454 548Q454 515
446 486T420 428T377 366T318 294L86 21H460V0H63Z" />
<glyph unicode="3" glyph-name="three" horiz-adv-x="560" d="M465 186Q465 147 453 112T417 49T354 5T262 -12Q194 -12 142 19T63 101L84 110Q106 64 154 37T262 8Q306 7 340 21T397 59T431 117T443 187Q443 233 424 266T374 320T308 352T240 362H218V382H240Q272
382 303 391T360 421T402 472T418 547Q418 582 406 610T373 659T324 690T262 701Q218 701 178 682T115 628L97 640Q123 677 165 698T262 720Q300 720 332 708T388 674T425 619T439 547Q439 517 431 489T404 437T358 397T290 374V372Q335 365 368 347T422 304T454
249T465 186Z" />
<glyph unicode="4" glyph-name="four" horiz-adv-x="560" d="M396 184V0H374V184H43V211L362 708H396V204H514V184H396ZM374 684H371L63 204H374V684Z" />
<glyph unicode="5" glyph-name="five" horiz-adv-x="560" d="M476 215Q476 159 458 117T409 46T340 3T261 -12Q192 -12 146 14T69 82L87 96Q115 55 157 32T261 8Q296 8 330 21T392 60T437 124T454 215Q454 258 440 295T400 360T336 403T249 419Q214 419 181 409T118
383L123 708H446V688H145L139 413Q167 427 199 432T258 438Q309 438 349 421T417 375T461 304T476 215Z" />
<glyph unicode="6" glyph-name="six" horiz-adv-x="560" d="M70 201Q70 240 83 284T130 386L317 708H343L130 348L132 347Q158 379 199 398T288 417Q331 417 368 401T432 356T474 287T490 201Q490 155 475 116T431 49T364 4T279 -12Q233 -12 195 3T129 47T86 115T70
201ZM92 201Q92 159 106 124T145 62T204 22T280 7Q321 7 355 21T415 62T454 123T468 201Q468 243 455 279T417 341T359 383T285 398Q246 398 211 383T150 342T108 279T92 201Z" />
<glyph unicode="7" glyph-name="seven" horiz-adv-x="560" d="M459 681L164 0H140L440 688H76V708H459V681Z" />
<glyph unicode="8" glyph-name="eight" horiz-adv-x="560" d="M489 188Q489 142 473 105T430 42T364 2T280 -12Q235 -12 197 2T131 42T87 105T71 188Q71 219 80 248T107 303T154 348T220 379V381Q157 405 128 451T98 547Q98 586 112 617T150 672T207 707T280 720Q319
720 352 708T410 672T448 618T462 547Q462 498 433 451T340 381V379Q379 367 407 347T454 302T480 248T489 188ZM441 547Q441 581 429 609T394 658T343 690T280 701Q246 701 217 690T166 659T132 610T119 547Q119 515 131 487T164 436T215 401T280 388Q315 388
344 401T395 436T429 486T441 547ZM467 188Q467 228 453 261T413 319T353 357T280 371Q241 371 207 358T148 320T108 262T93 188Q93 150 106 117T144 60T203 21T280 7Q322 7 356 21T415 59T453 117T467 188Z" />
<glyph unicode="9" glyph-name="nine" horiz-adv-x="560" d="M490 509Q490 470 476 428T430 328L242 0H216L430 366L428 367Q402 335 361 316T272 297Q229 297 192 312T128 356T86 423T70 509Q70 555 85 594T129 661T196 704T281 720Q327 720 365 705T431 662T474
595T490 509ZM468 509Q468 551 454 586T415 646T356 686T280 701Q239 701 205 687T145 647T106 586T92 509Q92 467 105 432T143 371T201 331T275 316Q314 316 349 330T410 370T452 431T468 509Z" />
<glyph unicode=":" glyph-name="colon" horiz-adv-x="280" d="M140 409Q131 409 124 416T117 435Q117 446 124 453T140 460Q149 460 156 453T163 435Q163 423 156 416T140 409ZM140 -6Q131 -6 124 1T117 20Q117 31 124 38T140 45Q149 45 156 38T163 20Q163 8 156
1T140 -6Z" />
<glyph unicode=";" glyph-name="semicolon" horiz-adv-x="280" d="M140 409Q131 409 124 416T117 435Q117 446 124 453T140 460Q149 460 156 453T163 435Q163 423 156 416T140 409ZM98 -138H81L138 90H162L98 -138Z" />
<glyph unicode="&lt;" glyph-name="less" horiz-adv-x="666" d="M100 291V315L566 539V519L112 303L566 87V67L100 291Z" />
<glyph unicode="=" glyph-name="equal" horiz-adv-x="666" d="M100 380V399H566V380H100ZM100 209V228H566V209H100Z" />
<glyph unicode="&gt;" glyph-name="greater" horiz-adv-x="666" d="M100 87L554 303L100 519V539L566 315V291L100 67V87Z" />
<glyph unicode="?" glyph-name="question" horiz-adv-x="472" d="M241 45Q249 45 256 38T264 19Q264 8 257 1T241 -6Q232 -6 225 1T218 19Q218 31 225 38T241 45ZM250 200H228V253Q228 269 230 286T240 320T261 355T297 390L331 420Q346 434 358 447T380 476T395
511T401 556Q401 592 389 620T354 667T303 695T240 705Q171 705 128 665T74 561L53 565Q67 643 118 684T242 726Q279 726 312 715T370 683T409 630T423 557Q423 525 416 502T396 460T367 426T333 395Q307 374 291 357T266 323T254 287T250 244V200Z" />
<glyph unicode="@" glyph-name="at" horiz-adv-x="800" d="M760 415Q760 361 747 314T710 233T649 180T565 160Q527 160 503 181T484 249H482Q474 234 462 218T432 190T394 169T347 160Q317 160 296 171T260 199T240 240T233 287Q233 331 247 378T287 464T350
528T432 553Q478 553 504 529T536 462H540L560 535H581L513 298Q509 284 506 267T503 238Q503 206 521 193T565 180Q611 180 644 200T698 253T729 328T739 415Q739 478 715 531T647 624T544 686T416 708Q340 708 277 679T167 601T95 488T69 355Q69 282 94 218T166
105T278 28T421 0Q507 0 580 37T703 133L718 120Q664 56 588 18T421 -20Q337 -20 268 9T150 90T74 209T47 355Q47 433 75 501T154 619T271 699T416 728Q491 728 554 705T663 639T734 540T760 415ZM523 432Q523 452 518 470T501 503T473 525T432 533Q390 533 357
509T302 449T267 369T255 286Q255 241 278 211T352 180Q394 180 426 209T479 279T512 362T523 432Z" />
<glyph unicode="A" glyph-name="A" horiz-adv-x="666" d="M624 0L540 203H129L42 0H18L325 708H353L648 0H624ZM338 694L137 222H533L338 694Z" />
<glyph unicode="B" glyph-name="B" horiz-adv-x="612" d="M551 189Q551 132 530 96T475 38T401 9T323 0H106V708H299Q339 708 378 700T449 673T499 622T518 541Q518 503 506 475T474 427T427 395T374 376V374Q401 371 432 360T489 326T533 270T551 189ZM496 538Q496
581 479 610T434 656T370 680T293 688H128V383H298Q334 383 369 392T433 419T478 467T496 538ZM529 186Q529 234 510 268T460 323T394 353T324 363H128V20H313Q359 20 399 29T467 59T512 110T529 186Z" />
<glyph unicode="C" glyph-name="C" horiz-adv-x="724" d="M686 87Q641 33 573 7T433 -20Q353 -20 287 8T173 85T99 204T72 354Q72 435 98 504T173 622T287 700T433 728Q499 728 561 706T668 637L654 621Q633 643 607 659T551 687T491 703T433 708Q357 708 295
681T188 605T119 493T94 354Q94 280 118 216T186 103T293 28T433 0Q499 0 563 25T670 102L686 87V87Z" />
<glyph unicode="D" glyph-name="D" horiz-adv-x="770" d="M698 354Q698 262 668 196T585 86T461 21T307 0H106V708H307Q389 708 460 688T585 624T668 513T698 354ZM129 688V20H302Q380 20 448 39T567 99T646 203T675 354Q675 442 646 505T567 609T449 669T302 688H129Z" />
<glyph unicode="E" glyph-name="E" horiz-adv-x="590" d="M106 0V708H518V688H127V377H495V357H127V20H534V0H106Z" />
<glyph unicode="F" glyph-name="F" horiz-adv-x="560" d="M128 688V377H483V357H128V0H106V708H510V688H128Z" />
<glyph unicode="G" glyph-name="G" horiz-adv-x="795" d="M699 41Q657 18 593 -1T445 -20Q361 -20 292 9T174 88T99 207T72 356Q72 436 99 504T174 622T291 700T441 728Q513 728 573 706T679 646L663 630Q643 649 617 663T561 688T500 703T440 708Q362 708 298
681T189 605T119 493T94 356Q94 283 118 218T187 105T298 28T447 0Q519 0 575 15T678 53V331H494V350H699V41V41Z" />
<glyph unicode="H" glyph-name="H" horiz-adv-x="732" d="M604 0V356H128V0H106V708H128V376H604V708H626V0H604Z" />
<glyph unicode="I" glyph-name="I" horiz-adv-x="234" d="M106 0V708H128V0H106Z" />
<glyph unicode="J" glyph-name="J" horiz-adv-x="480" d="M378 193Q378 95 333 39T197 -18Q134 -18 90 14T29 93L48 102Q68 57 107 30T197 2Q240 2 270 16T319 57T347 118T356 196V708H378V193V193Z" />
<glyph unicode="K" glyph-name="K" horiz-adv-x="565" d="M129 383L485 708H517L157 383L535 0H504L129 381H128V0H106V708H128V383H129Z" />
<glyph unicode="L" glyph-name="L" horiz-adv-x="498" d="M106 0V708H128V20H480V0H106Z" />
<glyph unicode="M" glyph-name="M" horiz-adv-x="906" d="M778 0V683H774L461 0H443L131 683H128V0H106V708H145L453 32L761 708H800V0H778Z" />
<glyph unicode="N" glyph-name="N" horiz-adv-x="777" d="M639 0L131 680H128V0H106V708H137L646 29H649V708H671V0H639Z" />
<glyph unicode="O" glyph-name="O" horiz-adv-x="872" d="M800 354Q800 272 773 204T697 86T581 8T436 -20Q358 -20 291 8T176 85T100 203T72 354Q72 436 99 504T175 622T290 700T436 728Q515 728 581 700T696 623T772 505T800 354ZM778 354Q778 428 753 492T683
605T574 680T436 708Q361 708 298 681T190 605T119 493T94 354Q94 280 118 216T188 103T296 28T436 0Q513 0 576 27T684 103T753 215T778 354Z" />
<glyph unicode="P" glyph-name="P" horiz-adv-x="572" d="M517 532Q517 487 501 453T456 395T391 360T311 348H128V0H106V708H298Q336 708 375 700T445 671T497 617T517 532ZM495 532Q495 577 478 607T434 655T374 681T307 689H128V367H312Q345 367 378 376T437
405T479 456T495 532Z" />
<glyph unicode="Q" glyph-name="Q" horiz-adv-x="883" d="M800 361Q800 302 781 246T728 143T649 65T550 22V20H838V0H434Q360 0 294 25T179 98T101 212T72 361Q72 441 99 508T175 624T290 700T436 728Q515 728 581 700T696 623T772 507T800 361ZM778 361Q778
432 753 495T683 605T574 680T436 708Q361 708 298 681T190 607T119 497T94 361Q94 290 119 228T190 120T299 47T437 20Q515 20 578 48T685 124T754 233T778 361Z" />
<glyph unicode="R" glyph-name="R" horiz-adv-x="594" d="M508 0L294 357H128V0H106V708H302Q341 708 381 701T452 675T504 621T524 533Q524 483 505 450T456 397T390 367T318 358L533 0H508ZM502 533Q502 579 484 609T437 657T369 682T290 689H128V376H301Q399
376 450 417T502 533Z" />
<glyph unicode="S" glyph-name="S" horiz-adv-x="570" d="M498 170Q498 125 481 90T434 30T366 -7T283 -20Q217 -20 163 3T72 67L89 82Q127 41 177 21T282 0Q321 0 356 11T418 44T460 97T476 170Q476 211 459 239T415 287T354 320T284 345Q240 359 204 374T141
412T100 466T85 543Q85 587 102 621T150 679T219 715T303 728Q357 728 405 708T485 649L468 634Q440 669 397 688T302 708Q266 708 232 698T169 668T124 616T107 543Q107 502 122 474T162 425T218 392T283 368Q328 353 367 338T435 300T481 247T498 170Z" />
<glyph unicode="T" glyph-name="T" horiz-adv-x="540" d="M281 688V0H259V688H18V708H522V688H281Z" />
<glyph unicode="U" glyph-name="U" horiz-adv-x="732" d="M636 268Q636 208 622 156T576 64T493 3T366 -20Q291 -20 240 2T156 64T110 155T96 268V708H118V272Q118 230 126 183T161 95T236 27T366 0Q445 0 493 26T569 92T605 180T614 272V708H636V268V268Z" />
<glyph unicode="V" glyph-name="V" horiz-adv-x="606" d="M318 0H284L18 708H42L300 20H302L564 708H588L318 0Z" />
<glyph unicode="W" glyph-name="W" horiz-adv-x="956" d="M716 0H682L477 687H475L274 0H240L28 708H51L255 20H258L459 708H493L698 20H701L905 708H928L716 0Z" />
<glyph unicode="X" glyph-name="X" horiz-adv-x="590" d="M531 0L295 354L58 0H32L282 371L56 708H82L295 388L508 708H533L308 371L558 0H531Z" />
<glyph unicode="Y" glyph-name="Y" horiz-adv-x="538" d="M280 310V0H258V310L15 708H41L270 332L498 708H523L280 310Z" />
<glyph unicode="Z" glyph-name="Z" horiz-adv-x="594" d="M54 0V27L520 688H67V708H540V679L75 20H552V0H54Z" />
<glyph unicode="[" glyph-name="bracketleft" horiz-adv-x="300" d="M80 -156V732H220V713H102V-137H220V-156H80Z" />
<glyph unicode="\" glyph-name="backslash" horiz-adv-x="370" d="M42 729L349 -8L330 -15L23 722L42 729Z" />
<glyph unicode="]" glyph-name="bracketright" horiz-adv-x="300" d="M80 -137H198V713H80V732H220V-156H80V-137Z" />
<glyph unicode="^" glyph-name="asciicircum" horiz-adv-x="666" d="M321 708H345L569 242H549L333 696L117 242H97L321 708Z" />
<glyph unicode="_" glyph-name="underscore" horiz-adv-x="500" d="M0 -114V-94H500V-114H0Z" />
<glyph unicode="`" glyph-name="grave" horiz-adv-x="240" d="M47 708L150 564H131L20 708H47Z" />
<glyph unicode="a" glyph-name="a" horiz-adv-x="512" d="M418 104Q418 78 420 49T426 0H405Q403 10 402 24T400 54T398 85T397 110H394Q374 47 325 17T220 -14Q192 -14 165 -6T115 18T80 59T66 118Q66 167 91 197T155 243T236 265T316 270H396V307Q396 384 355
419T248 455Q207 455 172 440T108 400L96 417Q128 445 168 459T248 474Q327 474 372 434T418 306V104ZM396 251H325Q287 251 245 247T168 228T111 188T88 118Q88 86 100 65T132 30T175 11T220 5Q271 5 305 24T359 72T388 137T396 207V251Z" />
<glyph unicode="b" glyph-name="b" horiz-adv-x="626" d="M127 335Q157 404 212 439T334 474Q385 474 427 456T500 405T547 327T564 229Q564 177 547 133T500 56T427 5T334 -14Q301 -14 270 -5T211 21T162 64T127 124H124V0H102V756H124V335H127ZM542 229Q542
274 528 315T486 387T421 436T334 455Q288 455 250 437T183 389T139 317T123 230Q123 184 139 143T183 72T249 23T334 5Q382 5 420 23T486 71T527 143T542 229Z" />
<glyph unicode="c" glyph-name="c" horiz-adv-x="480" d="M430 398Q404 425 369 440T296 455Q247 455 208 437T142 387T99 315T84 229Q84 184 99 143T141 72T208 23T296 5Q334 5 370 18T434 57L449 43Q419 13 379 0T296 -14Q245 -14 203 4T129 54T80 131T62 229Q62
282 79 327T128 404T202 455T296 474Q340 474 379 458T447 413L430 398Z" />
<glyph unicode="d" glyph-name="d" horiz-adv-x="626" d="M502 756H524V0H502V124H499Q469 56 414 21T292 -14Q242 -14 200 4T127 55T79 132T62 229Q62 281 79 326T126 404T199 455T292 474Q358 474 413 439T499 335H502V756ZM84 229Q84 184 98 143T140 72T205
23T292 5Q338 5 376 23T443 71T487 143T503 230Q503 276 487 317T443 388T377 437T292 455Q244 455 206 437T140 387T99 315T84 229Z" />
<glyph unicode="e" glyph-name="e" horiz-adv-x="556" d="M84 235Q84 193 96 152T134 79T199 26T291 6Q345 6 387 27T460 90L476 76Q442 32 397 9T291 -14Q240 -14 198 4T126 56T79 135T62 235Q62 287 79 331T125 407T195 456T281 474Q335 474 375 455T441 405T481
335T494 254V235H84ZM473 254Q472 299 458 336T418 399T358 440T280 455Q228 455 191 434T131 381T96 315T85 254H473Z" />
<glyph unicode="f" glyph-name="f" horiz-adv-x="282" d="M282 745Q272 747 262 748T241 750Q214 750 195 739T165 711T148 671T143 626V460H268V441H143V0H121V441H24V460H120V625Q120 667 131 695T159 739T198 761T240 768Q266 768 286 762L282 745Z" />
<glyph unicode="g" glyph-name="g" horiz-adv-x="626" d="M502 124H499Q486 90 464 65T415 22T357 -5T292 -14Q242 -14 200 4T127 55T79 132T62 229Q62 281 79 326T126 404T199 455T292 474Q358 474 413 439T499 335H502V460H524V26Q524 -29 513 -79T475 -167T405
-227T297 -250Q232 -250 181 -228T94 -164L109 -149Q147 -192 195 -211T297 -231Q357 -231 397 -209T460 -151T492 -69T502 28V124ZM84 229Q84 184 98 143T140 71T205 22T292 4Q338 4 376 22T443 71T487 143T503 230Q503 276 487 317T443 388T377 437T292 455Q244
455 206 437T140 387T99 315T84 229Z" />
<glyph unicode="h" glyph-name="h" horiz-adv-x="569" d="M126 339Q136 371 154 396T197 438T249 465T307 474Q355 474 387 457T438 412T465 349T473 278V0H451V276Q451 304 445 336T423 394T378 437T307 455Q269 455 236 440T178 395T139 325T124 230V0H102V756H124V339H126Z"
/>
<glyph unicode="i" glyph-name="i" horiz-adv-x="226" d="M113 633Q104 633 97 640T90 659Q90 670 97 677T113 684Q122 684 129 677T136 659Q136 647 129 640T113 633ZM102 0V460H124V0H102Z" />
<glyph unicode="j" glyph-name="j" horiz-adv-x="226" d="M124 -97Q124 -132 120 -159T103 -204T68 -231T12 -241Q5 -241 -3 -241T-17 -238L-13 -219Q0 -222 12 -222Q44 -222 62 -211T89 -183T100 -143T102 -99V460H124V-97ZM113 633Q104 633 97 640T90 659Q90
670 97 677T113 684Q122 684 129 677T136 659Q136 647 129 640T113 633Z" />
<glyph unicode="k" glyph-name="k" horiz-adv-x="445" d="M125 248L363 460H394L151 247L422 0H389L125 243H124V0H102V756H124V248H125Z" />
<glyph unicode="l" glyph-name="l" horiz-adv-x="226" d="M102 0V756H124V0H102Z" />
<glyph unicode="m" glyph-name="m" horiz-adv-x="889" d="M454 333Q474 401 522 437T631 474Q677 474 708 457T758 412T785 349T793 278V0H771V276Q771 304 765 336T742 394T699 437T631 455Q595 455 564 440T509 395T471 325T457 230V0H435V276Q435 304 430 336T409
394T368 437T300 455Q264 455 233 440T178 395T141 325T127 230V0H105V344Q105 355 105 371T104 403T102 435T100 460H122Q123 450 123 435T124 403T125 369T126 339H128Q138 371 156 396T196 438T245 465T300 474Q336 474 362 463T407 433T436 389T452 333H454Z"
/>
<glyph unicode="n" glyph-name="n" horiz-adv-x="572" d="M128 339Q138 371 157 396T200 438T252 465T310 474Q358 474 390 457T441 412T468 349T476 278V0H454V276Q454 304 448 336T426 394T381 437T310 455Q272 455 239 440T181 395T142 325T127 230V0H105V344Q105
355 105 371T104 403T102 435T100 460H122Q123 450 123 435T124 403T125 369T126 339H128V339Z" />
<glyph unicode="o" glyph-name="o" horiz-adv-x="605" d="M543 231Q543 177 526 132T476 55T400 4T302 -14Q249 -14 205 4T129 54T80 132T62 231Q62 285 79 329T129 406T205 456T302 474Q355 474 399 456T476 406T525 330T543 231ZM521 231Q521 277 506 318T463
389T394 437T302 455Q251 455 211 438T143 390T99 318T84 231Q84 184 99 143T142 72T211 23T302 5Q353 5 393 23T462 71T506 143T521 231Z" />
<glyph unicode="p" glyph-name="p" horiz-adv-x="626" d="M127 335Q157 404 212 439T334 474Q385 474 427 456T500 405T547 327T564 229Q564 177 547 133T500 56T427 5T334 -14Q301 -14 270 -5T211 21T162 64T127 124H124V-240H102V460H124V335H127ZM542 229Q542
274 528 315T486 387T421 436T334 455Q288 455 250 437T183 389T139 317T123 230Q123 184 139 143T183 72T249 23T334 5Q382 5 420 23T486 71T527 143T542 229Z" />
<glyph unicode="q" glyph-name="q" horiz-adv-x="626" d="M502 460H524V-240H502V124H499Q486 90 464 65T415 22T357 -5T292 -14Q242 -14 200 4T127 55T79 132T62 229Q62 282 78 327T125 404T198 455T292 474Q358 474 413 439T499 335H502V460ZM84 229Q84 184
98 143T140 72T205 23T292 5Q338 5 376 23T443 71T487 143T503 230Q503 276 487 317T443 388T377 437T292 455Q244 455 206 437T140 387T99 315T84 229Z" />
<glyph unicode="r" glyph-name="r" horiz-adv-x="317" d="M128 339Q148 411 192 442T287 474Q292 474 296 474T305 473V454Q301 455 298 455T292 455Q248 455 217 436T166 385T137 315T127 238V0H105V344Q105 355 105 371T104 403T102 435T100 460H122Q123 450
123 435T124 403T125 369T126 339H128V339Z" />
<glyph unicode="s" glyph-name="s" horiz-adv-x="415" d="M361 120Q361 89 349 65T317 23T269 -3T211 -12Q160 -12 119 7T50 65L68 77Q118 7 212 7Q234 7 256 14T297 35T327 70T339 118Q339 150 325 170T288 202T240 221T190 235Q165 242 143 250T105 272T79 306T69
356Q69 386 81 408T113 444T158 466T210 474Q304 474 351 407L332 396Q309 426 280 440T210 455Q191 455 170 450T132 434T103 403T91 357Q91 327 100 309T127 280T168 262T221 247Q248 240 273 231T318 207T349 172T361 120Z" />
<glyph unicode="t" glyph-name="t" horiz-adv-x="304" d="M280 -1Q268 -6 252 -9T221 -12Q167 -12 144 18T120 95V441H20V460H119V595H142V460H277V441H142V95Q142 48 165 28T226 7Q254 7 277 16L280 -1V-1Z" />
<glyph unicode="u" glyph-name="u" horiz-adv-x="572" d="M442 121Q431 89 413 64T370 21T318 -5T260 -14Q212 -14 180 3T129 48T102 111T94 182V460H116V184Q116 155 122 124T144 66T188 23T260 5Q298 5 331 20T389 65T428 135T443 230V460H465V116Q465 105 465
89T466 57T468 25T470 0H448Q447 10 447 25T446 57T445 91T444 121H442V121Z" />
<glyph unicode="v" glyph-name="v" horiz-adv-x="434" d="M234 0H205L24 460H48L219 22H221L386 460H410L234 0Z" />
<glyph unicode="w" glyph-name="w" horiz-adv-x="698" d="M529 0H499L349 436H347L198 0H168L34 460H57L183 22H185L333 460H364L513 22H515L641 460H664L529 0Z" />
<glyph unicode="x" glyph-name="x" horiz-adv-x="452" d="M224 228L56 0H28L210 243L51 460H79L225 258L370 460H399L239 243L424 0H395L224 228Z" />
<glyph unicode="y" glyph-name="y" horiz-adv-x="428" d="M176 -152Q160 -195 134 -218T65 -242Q56 -242 44 -240T24 -235L30 -216Q36 -218 46 -220T67 -222Q88 -222 103 -214T130 -194T148 -165T162 -133L206 -13L24 460H48L217 12L380 460H404L176 -152Z" />
<glyph unicode="z" glyph-name="z" horiz-adv-x="438" d="M49 0V21L353 441H65V460H375V438L74 19H387V0H49Z" />
<glyph unicode="{" glyph-name="braceleft" horiz-adv-x="300" d="M0 297Q16 297 30 302T55 319T71 354T77 412V607Q77 677 107 704T183 732H230V713H183Q139 713 119 686T99 607V411Q99 348 80 321T32 289V287Q61 282 80 255T99 165V-31Q99 -82 119 -109T183
-137H230V-156H183Q160 -156 141 -150T107 -129T85 -90T77 -31V164Q77 199 71 221T55 256T31 274T0 279V297Z" />
<glyph unicode="|" glyph-name="bar" horiz-adv-x="222" d="M122 750V-250H100V750H122Z" />
<glyph unicode="}" glyph-name="braceright" horiz-adv-x="300" d="M300 279Q283 279 269 274T245 257T229 222T223 164V-31Q223 -66 215 -90T193 -128T160 -149T117 -156H70V-137H117Q161 -137 181 -110T201 -31V165Q201 228 220 255T268 287V289Q239 294 220
321T201 411V607Q201 658 181 685T117 713H70V732H117Q163 732 193 705T223 607V412Q223 377 229 355T245 320T269 302T300 297V279V279Z" />
<glyph unicode="~" glyph-name="asciitilde" horiz-adv-x="666" d="M93 264Q125 319 157 338T225 357Q253 357 275 349T325 322Q369 291 396 282T444 272Q484 272 511 297T560 357L575 341Q545 294 512 273T444 251Q410 251 389 260T343 286Q321 301 305 310T277
325T253 333T227 336Q186 336 159 313T110 250L93 264V264Z" />
</font>
</defs>
</svg>
